# Blender v2.91.2 OBJ File: 'MainMenuDesk.blend'
# www.blender.org
mtllib MainMenuDesk.mtl
o Desk_Plane
v -0.750000 0.740000 0.300000
v 0.750000 0.740000 0.300000
v -0.750000 0.740000 -0.300000
v 0.750000 0.740000 -0.300000
v -0.750000 0.700000 -0.300000
v -0.750000 0.700000 0.300000
v 0.750000 0.700000 0.300000
v 0.750000 0.700000 -0.300000
v -0.715000 0.740000 0.300000
v -0.685000 0.740000 0.300000
v 0.685000 0.740000 0.300000
v 0.715000 0.740000 0.300000
v 0.715000 0.740000 -0.300000
v 0.685000 0.740000 -0.300000
v -0.685000 0.740000 -0.300000
v -0.715000 0.740000 -0.300000
v -0.715000 0.700000 0.300000
v -0.685000 0.700000 0.300000
v 0.685000 0.700000 0.300000
v 0.715000 0.700000 0.300000
v 0.715000 0.700000 -0.300000
v 0.685000 0.700000 -0.300000
v -0.685000 0.700000 -0.300000
v -0.715000 0.700000 -0.300000
v -0.750000 0.740000 0.269745
v 0.750000 0.740000 0.269745
v -0.750000 0.700000 0.269745
v 0.750000 0.700000 0.269745
v -0.715000 0.700000 0.269745
v -0.685000 0.700000 0.269745
v 0.685000 0.700000 0.269745
v 0.715000 0.700000 0.269745
v -0.715000 0.740000 0.269745
v -0.685000 0.740000 0.269745
v 0.685000 0.740000 0.269745
v 0.715000 0.740000 0.269745
v 0.715000 0.000000 -0.300000
v 0.685000 0.000000 -0.300000
v -0.685000 0.000000 -0.300000
v -0.715000 0.000000 -0.300000
v -0.715000 0.000000 0.269745
v -0.685000 0.000000 0.269745
v 0.685000 0.000000 0.269745
v 0.715000 0.000000 0.269745
v 0.750000 0.740000 -0.281714
v 0.750000 0.700000 -0.281714
v -0.715000 0.700000 -0.281714
v -0.685000 0.700000 -0.281714
v 0.685000 0.700000 -0.281714
v 0.715000 0.700000 -0.281714
v -0.750000 0.740000 -0.281714
v -0.750000 0.700000 -0.281714
v -0.715000 0.740000 -0.281714
v -0.685000 0.740000 -0.281714
v 0.685000 0.740000 -0.281714
v 0.715000 0.740000 -0.281714
v -0.715000 0.000000 -0.281714
v -0.685000 0.000000 -0.281714
v 0.685000 0.000000 -0.281714
v 0.715000 0.000000 -0.281714
v 0.750000 1.240000 -0.281714
v 0.750000 1.240000 -0.300000
v -0.715000 1.240000 -0.300000
v -0.750000 1.240000 -0.300000
v 0.715000 1.240000 -0.300000
v 0.685000 1.240000 -0.300000
v -0.685000 1.240000 -0.300000
v -0.750000 1.240000 -0.281714
v -0.715000 1.240000 -0.281714
v -0.685000 1.240000 -0.281714
v 0.685000 1.240000 -0.281714
v 0.715000 1.240000 -0.281714
v 0.715000 0.350000 0.269745
v 0.685000 0.350000 0.269745
v 0.685000 0.350000 -0.300000
v 0.715000 0.350000 -0.300000
v 0.715000 0.350000 -0.281714
v 0.685000 0.350000 -0.281714
v -0.685000 0.350000 -0.300000
v -0.685000 0.350000 0.269745
v -0.715000 0.350000 0.269745
v -0.715000 0.350000 -0.300000
v -0.715000 0.350000 -0.281714
v -0.685000 0.350000 -0.281714
vt 0.859013 0.482835
vt 0.859013 0.630089
vt 0.850178 0.630089
vt 0.850178 0.482835
vt 0.427559 0.023998
vt 0.422174 0.023998
vt 0.422174 0.013690
vt 0.427559 0.013690
vt 0.859013 0.471055
vt 0.869321 0.471055
vt 0.869321 0.482835
vt 0.610662 0.024001
vt 0.598881 0.024001
vt 0.598881 0.013693
vt 0.610662 0.013693
vt 0.427559 0.001910
vt 0.422174 0.001910
vt 0.589971 0.467235
vt 0.589971 0.455455
vt 0.598881 0.455455
vt 0.598881 0.467235
vt 0.610662 0.455455
vt 0.598881 0.445147
vt 0.610662 0.445147
vt 0.598881 0.436311
vt 0.610662 0.436311
vt 0.598881 0.032836
vt 0.610662 0.032836
vt 0.427559 0.482836
vt 0.427559 0.471055
vt 0.437867 0.471055
vt 0.437867 0.482836
vt 0.446702 0.471055
vt 0.446702 0.482836
vt 0.850178 0.471055
vt 0.427562 0.455455
vt 0.422177 0.455455
vt 0.422177 0.445147
vt 0.427562 0.445147
vt 0.339220 0.345465
vt 0.266333 0.272579
vt 0.272581 0.266331
vt 0.345468 0.339218
vt 0.422174 0.786548
vt 0.825649 0.786549
vt 0.825649 0.889627
vt 0.422174 0.889626
vt 0.230626 0.078604
vt 0.157740 0.151491
vt 0.153932 0.147683
vt 0.226818 0.074796
vt 0.874706 0.482835
vt 0.874706 0.630089
vt 0.869321 0.630089
vt 0.446702 0.782729
vt 0.446702 0.635475
vt 0.850178 0.635475
vt 0.850178 0.782729
vt 0.446702 0.630090
vt 0.437867 0.782729
vt 0.437867 0.635475
vt 0.619572 0.024001
vt 0.619572 0.032836
vt 0.619572 0.436311
vt 0.619572 0.445147
vt 0.619572 0.455454
vt 0.589971 0.032836
vt 0.589971 0.024001
vt 0.589971 0.436311
vt 0.589971 0.445147
vt 0.427562 0.467235
vt 0.598882 0.001912
vt 0.589971 0.013693
vt 0.589971 0.001912
vt 0.619572 0.013693
vt 0.151492 0.157738
vt 0.147684 0.153931
vt 0.157739 0.689035
vt 0.153931 0.692843
vt 0.147684 0.686595
vt 0.151492 0.682787
vt 0.345467 0.501308
vt 0.272580 0.574194
vt 0.266332 0.567947
vt 0.339219 0.495060
vt 0.230626 0.761922
vt 0.345467 0.647082
vt 0.081044 0.074796
vt 0.074797 0.081044
vt 0.074797 0.759482
vt 0.081044 0.765730
vt 0.078605 0.230626
vt 0.193446 0.345466
vt 0.078605 0.609900
vt 0.074797 0.613708
vt 0.193445 0.495060
vt 0.074797 0.226818
vt 0.226818 0.765730
vt 0.422177 0.467235
vt 0.781981 0.024001
vt 0.781981 0.032836
vt 0.781981 0.436311
vt 0.781981 0.445147
vt 0.781981 0.455454
vt 0.345467 0.193444
vt 0.427562 0.436312
vt 0.427562 0.032836
vt 0.781981 0.013693
vt 0.427559 0.635475
vt 0.427559 0.630090
vt 0.437867 0.630090
vt 0.869321 0.635475
vt 0.859013 0.635475
vt 0.422174 0.630090
vt 0.422174 0.482836
vt 0.859013 0.782729
vt 0.427559 0.782729
vt 0.869321 0.782729
vt 0.825649 0.895012
vt 0.422174 0.895013
vt 0.120559 0.422173
vt 0.005718 0.537013
vt 0.001910 0.540821
vt 0.001911 0.832368
vt 0.008158 0.838616
vt 0.303513 0.834809
vt 0.418354 0.719969
vt 0.418354 0.428421
vt 0.412106 0.422173
vt 0.418354 0.120557
vt 0.303513 0.005716
vt 0.001911 0.299705
vt 0.005719 0.303513
vt 0.120560 0.418353
vt 0.008157 0.001910
vt 0.001910 0.008157
vt 0.825649 0.998090
vt 0.422174 0.998090
vt 0.412107 0.418351
vt 0.418354 0.412104
vn 0.0000 0.0000 -1.0000
vn 0.0000 -1.0000 0.0000
vn -0.0000 0.0000 1.0000
vn 1.0000 0.0000 0.0000
vn -1.0000 0.0000 0.0000
vn 0.0000 1.0000 0.0000
usemtl None
s off
f 16/1/1 63/2/1 67/3/1 15/4/1
f 50/5/2 21/6/2 8/7/2 46/8/2
f 16/1/1 24/9/1 5/10/1 3/11/1
f 12/12/3 20/13/3 7/14/3 2/15/3
f 45/16/4 46/8/4 8/7/4 4/17/4
f 25/18/5 27/19/5 6/20/5 1/21/5
f 1/22/3 6/20/3 17/23/3 9/24/3
f 9/24/3 17/23/3 18/25/3 10/26/3
f 10/26/3 18/25/3 19/27/3 11/28/3
f 11/28/3 19/27/3 20/13/3 12/12/3
f 4/29/1 8/30/1 21/31/1 13/32/1
f 13/32/1 21/31/1 22/33/1 14/34/1
f 14/34/1 22/33/1 23/35/1 15/4/1
f 15/4/1 23/35/1 24/9/1 16/1/1
f 52/36/2 5/37/2 24/38/2 47/39/2
f 81/40/3 41/41/3 42/42/3 80/43/3
f 23/44/1 22/45/1 75/46/1 79/47/1
f 84/48/4 58/49/4 39/50/4 79/51/4
f 51/52/5 68/53/5 64/54/5 3/11/5
f 55/55/3 71/56/3 70/57/3 54/58/3
f 15/4/1 67/3/1 66/59/1 14/34/1
f 56/60/3 72/61/3 71/56/3 55/55/3
f 11/28/6 12/12/6 36/62/6 35/63/6
f 10/26/6 11/28/6 35/63/6 34/64/6
f 9/24/6 10/26/6 34/64/6 33/65/6
f 1/22/6 9/24/6 33/65/6 25/66/6
f 19/27/2 31/67/2 32/68/2 20/13/2
f 18/25/2 30/69/2 31/67/2 19/27/2
f 17/23/2 29/70/2 30/69/2 18/25/2
f 6/20/2 27/19/2 29/70/2 17/23/2
f 51/71/5 52/36/5 27/19/5 25/18/5
f 2/72/4 7/14/4 28/73/4 26/74/4
f 20/13/2 32/68/2 28/73/2 7/14/2
f 12/12/6 2/15/6 26/75/6 36/62/6
f 57/76/2 40/77/2 39/50/2 58/49/2
f 59/78/2 38/79/2 37/80/2 60/81/2
f 74/82/3 43/83/3 44/84/3 73/85/3
f 78/86/5 59/78/5 43/83/5 74/87/5
f 79/88/1 39/50/1 40/77/1 82/89/1
f 76/90/1 37/80/1 38/79/1 75/91/1
f 83/92/5 57/76/5 41/41/5 81/93/5
f 77/94/4 60/81/4 37/80/4 76/95/4
f 73/96/4 44/84/4 60/81/4 77/94/4
f 82/97/5 40/77/5 57/76/5 83/92/5
f 75/98/5 38/79/5 59/78/5 78/86/5
f 43/83/2 59/78/2 60/81/2 44/84/2
f 41/41/2 57/76/2 58/49/2 42/42/2
f 3/99/5 5/37/5 52/36/5 51/71/5
f 35/63/6 36/62/6 56/100/6 55/101/6
f 34/64/6 35/63/6 55/101/6 54/102/6
f 33/65/6 34/64/6 54/102/6 53/103/6
f 25/66/6 33/65/6 53/103/6 51/104/6
f 80/105/4 42/42/4 58/49/4 84/48/4
f 30/69/2 48/106/2 49/107/2 31/67/2
f 27/19/2 52/36/2 47/39/2 29/70/2
f 26/74/4 28/73/4 46/8/4 45/16/4
f 32/68/2 50/5/2 46/8/2 28/73/2
f 36/62/6 26/75/6 45/108/6 56/100/6
f 72/61/6 61/109/6 62/110/6 65/111/6
f 68/112/6 69/113/6 63/2/6 64/54/6
f 69/113/6 70/57/6 67/3/6 63/2/6
f 70/57/6 71/56/6 66/59/6 67/3/6
f 71/56/6 72/61/6 65/111/6 66/59/6
f 4/29/4 62/110/4 61/114/4 45/115/4
f 13/32/1 65/111/1 62/110/1 4/29/1
f 54/58/3 70/57/3 69/113/3 53/116/3
f 45/117/3 61/109/3 72/61/3 56/60/3
f 3/11/1 64/54/1 63/2/1 16/1/1
f 14/34/1 66/59/1 65/111/1 13/32/1
f 53/116/3 69/113/3 68/112/3 51/118/3
f 79/47/2 75/46/2 78/119/2 84/120/2
f 32/121/4 73/96/4 77/94/4 50/122/4
f 50/122/4 77/94/4 76/95/4 21/123/4
f 21/124/1 76/90/1 75/91/1 22/125/1
f 49/126/5 78/86/5 74/87/5 31/127/5
f 31/128/3 74/82/3 73/85/3 32/129/3
f 30/130/4 80/105/4 84/48/4 48/131/4
f 24/132/5 82/97/5 83/92/5 47/133/5
f 47/133/5 83/92/5 81/93/5 29/134/5
f 23/135/1 79/88/1 82/89/1 24/136/1
f 84/120/3 78/119/3 49/137/3 48/138/3
f 29/139/3 81/40/3 80/43/3 30/140/3
